<?xml version="1.0" encoding="iso-8859-1"?>
<!-- Generator: Adobe Illustrator 19.0.0, SVG Export Plug-In . SVG Version: 6.00 Build 0)  -->
<svg version="1.1" id="Layer_1" xmlns="http://www.w3.org/2000/svg" xmlns:xlink="http://www.w3.org/1999/xlink" fill="#ffffff" x="0px" y="0px"
	 viewBox="0 0 512 512" style="enable-background:new 0 0 512 512;" xml:space="preserve" width="240" height="240">
<g>
	<g>
		<g>
			<path d="M475.75,259.43c-0.648-4.676-5.018-7.936-9.617-7.287c-4.668,0.649-7.936,4.958-7.287,9.626
				c1.297,9.378,1.954,18.927,1.954,28.365c0,112.111-90.539,203.46-202.342,204.791c-30.345-19.388-58.786-43.127-46.114-72.695
				c22.75-53.094,1.579-72.892-7.467-81.348l-1.698-1.613c-2.586-2.577-5.495-4.335-8.073-5.879
				c-6.246-3.746-7.927-4.753-4.574-14.814c2.219-6.682,5.171-9.796,8.576-13.406c7.893-8.346,13.926-16.648,13.926-40.781
				c0-14.046-7.125-25.25-19.55-30.737c-14.089-6.229-32.905-4.028-42.854,5c-6.212,5.649-8.303,13.338-5.726,21.077
				c6.084,18.219-7.817,44.553-33.792,64.034c-6.878,5.163-8.934,2.799-10.155,1.382c-7.62-8.781-7.031-33.758-0.777-40.004
				c4.19-4.19,5.436-9.54,3.328-14.31c-6.912-15.684-51.012-14.473-59.75-14.054c-0.375,0.017-0.674,0.196-1.033,0.265
				c-0.512,0.085-0.99,0.188-1.468,0.367c-0.597,0.213-1.126,0.495-1.647,0.836c-0.393,0.247-0.759,0.503-1.101,0.811
				c-0.461,0.418-0.828,0.862-1.186,1.357c-0.299,0.401-0.555,0.811-0.776,1.271c-0.256,0.529-0.418,1.075-0.563,1.664
				c-0.077,0.316-0.265,0.58-0.307,0.913c-1.084,8.823-1.545,16.563-1.545,25.873c0,102.315,69.282,190.882,168.474,215.39
				c0.683,0.171,1.374,0.256,2.048,0.256c3.831,0,7.322-2.603,8.277-6.494c1.135-4.574-1.664-9.199-6.238-10.325
				C115.14,466.338,51.2,384.572,51.2,290.133c0-5.914,0.222-11.145,0.674-16.469c14.396-0.051,26.692,1.638,32.939,3.55
				c-9.788,15.283-8.713,45.329,3.251,59.119c8.585,9.873,21.018,10.291,33.289,1.084c32.785-24.585,48.384-57.207,39.74-83.081
				c-0.273-0.845-0.546-1.638,1.024-3.063c4.489-4.079,15.906-5.803,24.465-2.014c6.315,2.79,9.387,7.74,9.387,15.13
				c0,19.26-3.883,23.373-9.259,29.056c-3.985,4.224-8.951,9.472-12.373,19.738c-7.671,23.049,4.634,30.438,11.989,34.85
				c1.903,1.135,3.695,2.21,4.787,3.302c0.623,0.623,1.331,1.289,2.108,2.014c7.501,7.014,21.47,20.079,3.439,62.157
				c-20.446,47.71,32.273,80.973,54.784,95.181c1.365,0.853,2.944,1.314,4.557,1.314c122.334,0,221.867-99.533,221.867-221.867
				C477.867,279.91,477.158,269.585,475.75,259.43z"/>
			<path d="M358.366,294.571c-2.466,0.708-5.837,1.673-6.733,1.741c-11.793,0-19.268,9.131-24.721,15.795
				c-2.082,2.551-5.803,7.33-8.243,7.177c-3.857-1.929-7.91-2.901-12.049-2.901c-10.061,0-18.773,5.982-20.719,14.242
				c-1.374,5.803,0.648,13.747,10.419,18.637c13.858,6.929,28.186,14.089,34.56,20.463c4.386,4.386,11.972,6.904,20.821,6.904
				c13.44,0,31.309-6.528,37.444-24.943c2.423-7.253,8.218-12.8,13.824-18.168c6.502-6.229,12.655-12.1,12.74-20.548
				c0.06-4.984-2.15-9.745-6.554-14.157c-5.999-5.999-14.165-9.037-24.286-9.037C375.16,289.775,365.449,292.548,358.366,294.571z
				 M398.643,312.738c-0.401,1.681-4.651,5.751-7.475,8.457c-6.443,6.161-14.456,13.833-18.21,25.096
				c-4.215,12.638-18.449,13.269-21.257,13.269c-4.975,0-8.098-1.314-8.747-1.894c-8.346-8.346-23.236-15.795-39.006-23.671
				c-0.034-0.017-0.06-0.026-0.094-0.043c1.604-0.649,4.574-0.708,7.185,0.597c2.756,1.382,5.581,2.082,8.405,2.082
				c9.446,0,15.411-7.287,20.668-13.713c3.849-4.693,7.808-9.54,11.52-9.54c3.029,0,6.554-1.007,11.418-2.398
				c6.46-1.843,14.498-4.139,21.82-4.139c5.504,0,9.498,1.323,12.211,4.036C398.268,312.073,398.583,312.738,398.643,312.738z"/>
			<path d="M247.637,85.504c17.135-0.7,34.543,0.759,51.285,4.335c-0.307,12.279,4.992,20.702,8.405,26.112
				c0.939,1.502,2.236,3.55,2.389,3.831c0,30.609-6.255,35.584-6.187,35.601c-13.833,0-36.531,12.356-45.065,28.288
				c-5.239,9.771-4.813,20.113,1.186,29.124c4.113,6.17,7.654,13.03,11.085,19.669c7.253,14.046,15.309,29.628,27.93,29.628
				c2.679,0,5.564-0.7,8.687-2.261c9.95-4.975,17.084-19.123,23.979-32.794c3.038-6.025,7.501-14.865,10.146-17.673
				c8.661,1.178,12.894,9.011,18.62,21.419c4.215,9.131,8.576,18.56,17.143,22.844c14.421,7.211,61.841-0.341,88.047-11.469
				c0.35-0.145,0.589-0.435,0.913-0.623c0.503-0.299,0.981-0.58,1.408-0.964c0.41-0.375,0.725-0.785,1.05-1.22
				c0.333-0.435,0.64-0.862,0.879-1.348c0.247-0.495,0.384-1.007,0.521-1.536c0.145-0.529,0.273-1.033,0.316-1.579
				c0.034-0.572-0.034-1.118-0.119-1.698c-0.043-0.375,0.034-0.734-0.068-1.109c-17.911-66.219-66.56-121.301-130.15-147.337
				c-4.378-1.792-9.353,0.299-11.136,4.659s0.307,9.344,4.668,11.127c56.311,23.066,99.874,70.835,117.922,128.649
				c-26.547,9.353-60.561,12.177-66.62,9.182c-3.209-1.604-6.434-8.576-9.276-14.729c-5.948-12.885-14.097-30.532-34.901-31.454
				c-10.871-0.572-16.811,11.733-24.602,27.179c-4.574,9.062-11.477,22.767-16.981,25.464c-3.166-0.742-9.455-12.919-13.21-20.19
				c-3.473-6.724-7.407-14.345-12.049-21.299c-2.517-3.772-2.62-7.356-0.341-11.605c5.862-10.94,23.45-19.277,30.02-19.277
				c15.428,0,23.253-17.715,23.253-52.668c0-4.966-2.551-9.011-5.009-12.928c-3.618-5.726-7.347-11.657-5.137-21.777
				c0.981-4.497-1.784-8.969-6.246-10.095c-20.582-5.188-42.172-7.381-63.445-6.537c-4.71,0.188-8.371,4.164-8.183,8.875
				C238.95,82.022,242.628,85.658,247.637,85.504z"/>
			<path d="M258.483,467.302c8.09,0,15.65-2.927,20.753-8.021c5.666-5.666,7.049-13.995,3.891-23.441
				c-2.125-6.383-6.332-13.133-11.255-18.057c-2.441-2.432-5.751-3.772-9.344-3.772c-10.65,0-23.142,12.254-27.699,23.253
				c-3.558,8.593-2.5,16.606,2.91,22.016C242.833,464.375,250.394,467.302,258.483,467.302z M251.998,441.071
				c2.944-4.864,7.1-8.294,9.353-9.515c2.423,2.876,4.523,6.477,5.589,9.677c0.947,2.825,1.033,5.171,0.23,5.973
				c-3.789,3.789-13.636,3.686-17.323,0.094C249.728,446.933,249.737,444.8,251.998,441.071z"/>
			<path d="M47.078,246.963c0.623,0.145,1.246,0.205,1.86,0.205c3.908,0,7.432-2.705,8.32-6.673
				c6.076-27.264,27.264-67.422,44.45-84.258c3.362-3.294,3.422-8.695,0.128-12.066c-3.311-3.371-8.713-3.422-12.066-0.128
				c-19.422,19.021-42.394,62.353-49.169,92.74C39.578,241.382,42.479,245.939,47.078,246.963z"/>
			<path d="M146.935,176c1.621,2.022,4.07,3.2,6.665,3.2c2.594,0,5.043-1.178,6.665-3.2l33.886-42.377
				c9.37-10.701,27.716-41.847,27.716-65.357C221.867,30.626,191.241,0,153.6,0c-37.641,0-68.267,30.626-68.267,68.267
				c0,27.486,24.499,61.099,27.469,65.067L146.935,176z M153.6,17.067c28.237,0,51.2,22.963,51.2,51.2
				c0,17.647-15.514,45.005-23.731,54.4L153.6,157.005l-27.298-34.108c-8.26-11.076-23.902-36.745-23.902-54.63
				C102.4,40.03,125.363,17.067,153.6,17.067z"/>
			<path d="M153.6,85.333c9.412,0,17.067-7.654,17.067-17.067c0-9.412-7.654-17.067-17.067-17.067
				c-9.412,0-17.067,7.654-17.067,17.067C136.533,77.679,144.188,85.333,153.6,85.333z"/>
		</g>
	</g>
</g>
<g>
</g>
<g>
</g>
<g>
</g>
<g>
</g>
<g>
</g>
<g>
</g>
<g>
</g>
<g>
</g>
<g>
</g>
<g>
</g>
<g>
</g>
<g>
</g>
<g>
</g>
<g>
</g>
<g>
</g>
</svg>
