<?xml version="1.0" encoding="UTF-8"?>
<!-- Generator: Adobe Illustrator 23.0.1, SVG Export Plug-In . SVG Version: 6.00 Build 0)  -->
<!DOCTYPE svg PUBLIC "-//W3C//DTD SVG 1.1//EN" "http://www.w3.org/Graphics/SVG/1.1/DTD/svg11.dtd">
<svg version="1.1" id="Livello_1" xmlns:x="http://ns.adobe.com/Extensibility/1.0/" xmlns:i="http://ns.adobe.com/AdobeIllustrator/10.0/" xmlns:graph="http://ns.adobe.com/Graphs/1.0/" xmlns="http://www.w3.org/2000/svg" xmlns:xlink="http://www.w3.org/1999/xlink" x="0px" y="0px" viewBox="0 0 4481.832 4482.661" enable-background="new 0 0 4481.832 4482.661" xml:space="preserve">
<metadata>
	<sfw xmlns="http://ns.adobe.com/SaveForWeb/1.0/">
		<slices/>
		<sliceSourceBounds bottomLeftOrigin="true" height="4482.661" width="4481.832" x="-2144.916" y="-2145.318">
			</sliceSourceBounds>
	</sfw>
</metadata>
<g>
	<g>
		<path fill="#255FDB" d="M1545.47,2708.41C781.522,1697.707-2.797,2465.729,201.941,3172.126    c514.98,1126.319,1845.516,1621.908,2971.834,1106.928c388.227-177.507,717.722-462.139,949.765-820.448    C3533.008,4011.705,2460.68,3919.268,1545.47,2708.41z"/>
		<path fill="#4285F4" d="M2228.44,2012.453C1177.757,418.858,0.004,1268.113,0.004,2241.638    c-0.425,322.418,69.079,641.094,203.719,934.053C63.921,2515.895,822.012,2007.106,1527.9,2954.146    c1024.964,1375.106,2030.828,1133.189,2593.604,507.516c180.738-277.449,297.472-591.64,341.739-919.793v4.329    C4221.58,3295.886,3155.108,3417.863,2228.44,2012.453z"/>
		<path fill="#91BFFF" d="M2948.588,1299.435C2168.343,12.183,1179.03,128.048,509.302,817.893    C179.168,1218.827-0.925,1722.277,0.004,2241.638c70.029-942.202,1209.584-1597.924,2240.914,0    c916.738,1422.217,2058.84,1051.702,2221.306,308.635v-7.13c14.218-101.209,20.265-203.399,18.08-305.579v-101.86    C4083.306,2419.892,3561.274,2310.138,2948.588,1299.435z"/>
		<path fill="#C4E1FF" d="M2953.936,1528.62c714.546,1148.723,1330.543,854.858,1527.896,609.121    c-7.978-171.708-35.749-341.922-82.761-507.261c-333.082,6.875-410.75-48.638-738.483-547.751    C3159.692,315.216,2528.671-202.996,1426.04,153.513c-357.252,140.122-672.802,369.158-916.738,665.399    C1266.884,121.682,2196.354,310.887,2953.936,1528.62z"/>
		<path fill="#F5F5F5" d="M3611.695,1181.533c326.715,499.877,525.596,525.342,787.376,448.947    C4059.649,438.263,2818.011-253.065,1625.795,86.357c-67.6,19.245-134.258,41.656-199.755,67.157    C2411.023-157.159,3109.526,413.765,3611.695,1181.533z"/>
	</g>
	<g>
		<path fill="#FFFFFF" fill-opacity="0.2" d="M2240.918,26.189c1232.656,0,2233.911,995.526,2240.914,2228.181v-12.732    c0-1237.621-1003.293-2240.914-2240.914-2240.914S0.004,1004.017,0.004,2241.638v12.732    C7.006,1021.715,1008.262,26.189,2240.918,26.189z"/>
		<path fill="#1A237E" fill-opacity="0.2" d="M2240.918,4457.087c-1232.656,0-2233.911-995.526-2240.914-2228.182v12.732    c0,1237.623,1003.291,2240.914,2240.914,2240.914S4481.832,3479.26,4481.832,2241.638v-12.732    C4474.829,3461.561,3473.573,4457.087,2240.918,4457.087z"/>
	</g>
	
		<radialGradient id="SVGID_1_" cx="1034.8246" cy="4082.8464" r="25.2971" gradientTransform="matrix(176 0 0 -176 -181452.2812 719258.5625)" gradientUnits="userSpaceOnUse">
		<stop offset="0" style="stop-color:#FFFFFF"/>
		<stop offset="1" style="stop-color:#FFFFFF;stop-opacity:0"/>
	</radialGradient>
	<circle fill="url(#SVGID_1_)" fill-opacity="0.1" cx="2240.918" cy="2241.638" r="2240.914"/>
</g>
</svg>