<svg width='100' height='100' xmlns="http://www.w3.org/2000/svg" xmlns:xlink="http://www.w3.org/1999/xlink" version="1.1" x="0px" y="0px" viewBox="0 0 100 100" enable-backgrounddd="new 0 0 100 100" xml:space="preserve">
    <g id="layer13">
    <path style="color:#ffffff;fill:#ffffff" d="M50,10c13.457,0,24.371,10.909,24.371,24.371C74.371,47.832,50,82,50,82S25.629,47.832,25.629,34.371   C25.629,20.909,36.542,10,50,10 M50,0C31.048,0,15.629,15.418,15.629,34.371c0,4.794,1.409,13.532,13.595,33.982   C35.456,78.81,41.6,87.444,41.859,87.807L50,99.221l8.142-11.414c0.258-0.362,6.402-8.997,12.635-19.454   c12.186-20.45,13.595-29.188,13.595-33.982C84.371,15.418,68.952,0,50,0L50,0z"/>
    <path style="color:#ffffff;fill:#ffffff" d="M60,34c0,5.527-4.466,10-10,10c-5.527,0-10-4.473-10-10c0-5.531,4.473-10,10-10C55.534,24,60,28.469,60,34z"/>
    </g>
</svg>
